<svg width="439" height="361" viewBox="0 0 439 361" fill="none" xmlns="http://www.w3.org/2000/svg">
<path d="M439 317.241H0V317.484H439V317.241Z" fill="#EBEBEB"/>
<path d="M395.012 332.832H375.977V333.075H395.012V332.832Z" fill="#EBEBEB"/>
<path d="M302.62 327.813H272.672V328.055H302.62V327.813Z" fill="#EBEBEB"/>
<path d="M387.303 323.84H348.206V324.083H387.303V323.84Z" fill="#EBEBEB"/>
<path d="M151.912 328.724H142.131V328.966H151.912V328.724Z" fill="#EBEBEB"/>
<path d="M134.307 328.724H100.601V328.966H134.307V328.724Z" fill="#EBEBEB"/>
<path d="M82.5408 324.635H58.2202V324.877H82.5408V324.635Z" fill="#EBEBEB"/>
<path d="M208.086 274.025H38.5531C37.225 274.023 35.952 273.438 35.0137 272.401C34.0754 271.364 33.5485 269.958 33.5485 268.492V5.48438C33.56 4.02707 34.0921 2.63364 35.0292 1.60677C35.9662 0.579889 37.2325 0.00249645 38.5531 0H208.086C209.416 0 210.691 0.582921 211.631 1.62053C212.571 2.65813 213.099 4.06543 213.099 5.53283V268.492C213.099 269.96 212.571 271.367 211.631 272.405C210.691 273.442 209.416 274.025 208.086 274.025ZM38.5531 0.193795C37.2832 0.196362 36.0661 0.754892 35.169 1.74679C34.2718 2.73869 33.768 4.0829 33.768 5.48438V268.492C33.768 269.894 34.2718 271.238 35.169 272.23C36.0661 273.222 37.2832 273.78 38.5531 273.783H208.086C209.357 273.78 210.575 273.222 211.473 272.23C212.372 271.239 212.878 269.895 212.88 268.492V5.48438C212.878 4.08201 212.372 2.73782 211.473 1.7462C210.575 0.754577 209.357 0.196356 208.086 0.193795H38.5531Z" fill="#EBEBEB"/>
<path d="M398.006 274.025H228.464C227.136 274.023 225.862 273.439 224.922 272.402C223.982 271.365 223.453 269.959 223.451 268.492V5.48438C223.465 4.02619 223.999 2.63277 224.937 1.60616C225.876 0.57955 227.143 0.00246922 228.464 0H398.006C399.325 0.00504301 400.589 0.583562 401.524 1.61017C402.46 2.63677 402.99 4.02874 403.002 5.48438V268.492C403.002 269.956 402.476 271.361 401.54 272.398C400.603 273.435 399.333 274.02 398.006 274.025ZM228.464 0.193795C227.194 0.196356 225.976 0.754577 225.077 1.7462C224.179 2.73782 223.673 4.08201 223.671 5.48438V268.492C223.673 269.895 224.179 271.239 225.077 272.23C225.976 273.222 227.194 273.78 228.464 273.783H398.006C399.277 273.78 400.495 273.222 401.393 272.23C402.292 271.239 402.798 269.895 402.8 268.492V5.48438C402.798 4.08201 402.292 2.73782 401.393 1.7462C400.495 0.754577 399.277 0.196356 398.006 0.193795H228.464Z" fill="#EBEBEB"/>
<path d="M100.97 115.918C105.839 115.918 110.509 113.783 113.952 109.984C117.395 106.184 119.329 101.031 119.329 95.6569C119.329 90.2833 117.395 85.1298 113.952 81.3301C110.509 77.5304 105.839 75.3958 100.97 75.3958H98.7136V115.918H100.97Z" fill="#E0E0E0"/>
<path d="M98.6961 115.918C108.836 115.918 117.055 106.847 117.055 95.6569C117.055 84.467 108.836 75.3958 98.6961 75.3958C88.5568 75.3958 80.3372 84.467 80.3372 95.6569C80.3372 106.847 88.5568 115.918 98.6961 115.918Z" fill="#F5F5F5"/>
<path d="M97.8532 98.1956C91.3331 98.1956 85.08 95.3371 80.4697 90.249C75.8593 85.1609 73.2692 78.26 73.2692 71.0644V54.8729C73.2692 54.197 73.5124 53.5488 73.9455 53.0709C74.3785 52.593 74.9659 52.3245 75.5783 52.3245C76.1907 52.3245 76.7781 52.593 77.2111 53.0709C77.6442 53.5488 77.8874 54.197 77.8874 54.8729V71.0741C77.8921 76.9147 79.9959 82.5148 83.7373 86.6457C87.4787 90.7765 92.5521 93.1008 97.8444 93.1085C98.159 93.087 98.4743 93.1369 98.7708 93.255C99.0673 93.3732 99.3387 93.557 99.5684 93.7953C99.7981 94.0336 99.9811 94.3213 100.106 94.6406C100.231 94.9599 100.296 95.3041 100.296 95.652C100.296 95.9999 100.231 96.3441 100.106 96.6634C99.9811 96.9828 99.7981 97.2704 99.5684 97.5087C99.3387 97.747 99.0673 97.9309 98.7708 98.049C98.4743 98.1671 98.159 98.217 97.8444 98.1956H97.8532Z" fill="#E0E0E0"/>
<path d="M55.1648 69.1361H96.0094C96.6626 69.1363 97.3071 68.9709 97.8933 68.6527C98.4794 68.3346 98.9916 67.8722 99.3902 67.3011C99.7889 66.7301 100.063 66.0657 100.193 65.359C100.322 64.6524 100.303 63.9224 100.136 63.2254L96.5801 48.4486C96.3401 47.4448 95.8062 46.5566 95.0615 45.9222C94.3168 45.2879 93.403 44.9429 92.4623 44.9409H58.7119C57.7701 44.9424 56.855 45.287 56.1088 45.9213C55.3626 46.5555 54.8271 47.444 54.5853 48.4486L51.0733 63.206C50.9024 63.9013 50.8786 64.6306 51.0037 65.3377C51.1289 66.0447 51.3996 66.7105 51.7951 67.2837C52.1905 67.8568 52.7001 68.322 53.2844 68.6432C53.8687 68.9644 54.5121 69.1331 55.1648 69.1361Z" fill="#F5F5F5"/>
<path d="M360.226 115.918C365.095 115.918 369.765 113.783 373.208 109.984C376.651 106.184 378.585 101.031 378.585 95.6569C378.585 90.2833 376.651 85.1298 373.208 81.3301C369.765 77.5304 365.095 75.3958 360.226 75.3958H357.97V115.918H360.226Z" fill="#E0E0E0"/>
<path d="M357.97 115.918C368.109 115.918 376.329 106.847 376.329 95.6569C376.329 84.467 368.109 75.3958 357.97 75.3958C347.83 75.3958 339.611 84.467 339.611 95.6569C339.611 106.847 347.83 115.918 357.97 115.918Z" fill="#F5F5F5"/>
<path d="M357.126 98.1956C350.606 98.1956 344.353 95.3371 339.743 90.249C335.133 85.1609 332.542 78.26 332.542 71.0644V54.8729C332.542 54.197 332.786 53.5488 333.219 53.0709C333.652 52.593 334.239 52.3245 334.852 52.3245C335.464 52.3245 336.051 52.593 336.484 53.0709C336.917 53.5488 337.161 54.197 337.161 54.8729V71.0741C337.165 76.9147 339.269 82.5148 343.011 86.6457C346.752 90.7765 351.825 93.1008 357.118 93.1085C357.432 93.087 357.748 93.1369 358.044 93.255C358.341 93.3732 358.612 93.557 358.842 93.7953C359.071 94.0336 359.254 94.3213 359.38 94.6406C359.505 94.9599 359.569 95.3041 359.569 95.652C359.569 95.9999 359.505 96.3441 359.38 96.6634C359.254 96.9828 359.071 97.2704 358.842 97.5087C358.612 97.747 358.341 97.9309 358.044 98.049C357.748 98.1671 357.432 98.217 357.118 98.1956H357.126Z" fill="#E0E0E0"/>
<path d="M314.438 69.136H355.283C355.936 69.1362 356.58 68.9708 357.167 68.6527C357.753 68.3345 358.265 67.8721 358.664 67.3011C359.062 66.73 359.337 66.0656 359.466 65.3589C359.595 64.6523 359.576 63.9223 359.409 63.2253L355.897 48.4679C355.657 47.464 355.123 46.5759 354.379 45.9415C353.634 45.3071 352.72 44.9622 351.779 44.9602H317.985C317.043 44.9617 316.128 45.3063 315.382 45.9406C314.636 46.5748 314.1 47.4633 313.859 48.4679L310.347 63.2253C310.179 63.9193 310.158 64.6465 310.284 65.3511C310.411 66.0556 310.682 66.7187 311.077 67.2895C311.472 67.8603 311.981 68.3235 312.563 68.6436C313.146 68.9637 313.787 69.1322 314.438 69.136Z" fill="#F5F5F5"/>
<path d="M117.635 252.766H130.989V195.664H117.635V252.766Z" fill="#E6E6E6"/>
<path d="M81.4344 252.756H125.747L132.437 185.926H88.1248L81.4344 252.756Z" fill="#F0F0F0"/>
<path d="M76.6318 252.756H122.411L129.101 185.926H83.331L76.6318 252.756Z" fill="#F5F5F5"/>
<path d="M119.101 247.495L124.737 191.198H86.6322L80.9955 247.495H119.101Z" fill="white"/>
<path d="M111.234 233.842L111.506 231.584C112.92 217.457 104.93 204.87 94.552 204.87L94.3149 207.166C92.9014 221.284 100.891 233.871 111.278 233.871L111.234 233.842Z" fill="#F5F5F5"/>
<path d="M51.8812 317.241H91.2507L91.2507 252.756H51.8812L51.8812 317.241Z" fill="#E6E6E6"/>
<path d="M55.832 317.241H51.8722V304.809H59.9849L55.832 317.241Z" fill="#F0F0F0"/>
<path d="M162.219 317.241H201.589V252.756H162.219V317.241Z" fill="#E6E6E6"/>
<path d="M51.872 309.615H165.67V252.766H51.872V309.615Z" fill="#F0F0F0"/>
<path d="M161.71 317.241H165.67V304.809H157.557L161.71 317.241Z" fill="#F0F0F0"/>
<path d="M54.9452 279.258H162.597V256.312H54.9452V279.258Z" fill="#E6E6E6"/>
<path d="M101.593 271.312H115.949C119.035 271.313 122.089 270.62 124.924 269.274C127.76 267.927 130.316 265.957 132.437 263.483H85.1044C87.2267 265.955 89.7833 267.925 92.6183 269.271C95.4532 270.617 98.507 271.312 101.593 271.312Z" fill="#F0F0F0"/>
<path d="M54.9452 305.904H162.597V282.959H54.9452V305.904Z" fill="#E6E6E6"/>
<path d="M101.593 297.92H115.949C119.035 297.922 122.089 297.228 124.924 295.882C127.76 294.535 130.316 292.565 132.437 290.091H85.1044C87.2267 292.564 89.7833 294.533 92.6183 295.879C95.4532 297.225 98.507 297.92 101.593 297.92Z" fill="#F0F0F0"/>
<path d="M158.461 250.13H159.48C159.48 247.814 159.48 241.952 159.585 228.513C159.77 204.143 160.121 202.66 160.121 202.66L157.697 213.91C156.161 226.361 158.145 238.881 158.461 250.13Z" fill="#E6E6E6"/>
<path d="M156.451 212.205C152.939 207.622 145.52 206.284 137.899 205.141C134.905 204.695 145.757 212.244 151.069 217.602C155.195 221.769 157.829 222.922 158.971 227.069C159.55 221.894 159.454 216.187 156.451 212.205Z" fill="#E6E6E6"/>
<path d="M161.078 220.422C164.59 215.838 172.009 214.511 179.63 213.367C182.624 212.922 171.728 220.47 166.46 225.828C162.333 229.995 159.699 231.148 158.558 235.295C157.979 230.121 158.04 224.375 161.078 220.422Z" fill="#E6E6E6"/>
<path d="M159.585 201.546C162.219 196.062 168.769 190.887 176.153 188.949C179.051 188.184 169.436 199.065 165.784 206.091C162.948 211.536 159.19 217.951 158.602 222.563C157.724 213.474 156.969 207.06 159.585 201.546Z" fill="#E6E6E6"/>
<path d="M159.269 252.756C156.161 252.756 153.589 251.041 153.404 248.832L152.886 245.072H165.661L165.134 248.832C164.959 251.041 162.43 252.756 159.269 252.756Z" fill="#F0F0F0"/>
<path d="M166.486 246.516H152.061L151.648 242.32H166.899L166.486 246.516Z" fill="#F0F0F0"/>
<path d="M148.856 166.392L289.52 166.392V24.7961L148.856 24.7961L148.856 166.392Z" fill="#E6E6E6"/>
<path d="M145.695 166.392L288.142 166.392V24.7961L145.695 24.7961L145.695 166.392Z" fill="#F5F5F5"/>
<path d="M282.453 160.055V31.1428L151.367 31.1428V160.055H282.453Z" fill="#FAFAFA"/>
<path d="M266.376 160.055L214.785 31.1428H197.26L248.851 160.055H266.376Z" fill="white"/>
<path d="M243.882 160.055L192.291 31.1428H180.227L231.818 160.055H243.882Z" fill="white"/>
<path d="M200.044 160.045V31.1331H193.265V160.045H200.044Z" fill="#E6E6E6"/>
<path d="M245.103 160.045V31.1331H238.324V160.045H245.103Z" fill="#E6E6E6"/>
<path d="M198.823 164.076V26.4238H190.254V164.076H198.823Z" fill="#F5F5F5"/>
<path d="M243.882 164.076V26.4238H235.313V164.076H243.882Z" fill="#F5F5F5"/>
<path d="M151.982 160.055V31.1428H151.376V160.055H151.982Z" fill="#E6E6E6"/>
<path d="M143.307 16.6372H295.693C295.888 16.6397 296.074 16.7263 296.212 16.8784C296.35 17.0305 296.428 17.2361 296.43 17.4511C296.428 17.6653 296.349 17.8699 296.211 18.0204C296.073 18.171 295.887 18.2554 295.693 18.2554H143.307C143.113 18.2554 142.927 18.171 142.789 18.0204C142.651 17.8699 142.572 17.6653 142.57 17.4511C142.572 17.2361 142.65 17.0305 142.788 16.8784C142.926 16.7263 143.112 16.6397 143.307 16.6372Z" fill="#E6E6E6"/>
<path d="M289.52 21.9762C289.782 21.9736 290.032 21.8571 290.216 21.6521C290.401 21.447 290.504 21.17 290.504 20.8813V18.5363C290.505 18.393 290.48 18.2509 290.432 18.1181C290.383 17.9853 290.31 17.8645 290.219 17.7627C290.127 17.6609 290.019 17.5801 289.899 17.5249C289.779 17.4698 289.65 17.4414 289.52 17.4414C289.259 17.4414 289.008 17.5554 288.822 17.7587C288.636 17.9619 288.531 18.2379 288.528 18.5267V20.8716C288.528 21.1629 288.633 21.4424 288.818 21.6493C289.004 21.8561 289.257 21.9736 289.52 21.9762Z" fill="#E6E6E6"/>
<path d="M154.353 21.9762C154.615 21.9737 154.866 21.8575 155.052 21.6527C155.237 21.4479 155.343 21.1709 155.345 20.8813V18.5363C155.345 18.2459 155.24 17.9674 155.054 17.7621C154.868 17.5568 154.616 17.4414 154.353 17.4414C154.092 17.4414 153.842 17.5557 153.657 17.7593C153.473 17.9628 153.369 18.2388 153.369 18.5267V20.8716C153.368 21.0154 153.393 21.158 153.441 21.2913C153.49 21.4247 153.562 21.5461 153.654 21.6487C153.745 21.7512 153.854 21.833 153.974 21.8892C154.094 21.9454 154.222 21.9749 154.353 21.9762Z" fill="#E6E6E6"/>
<path opacity="0.6" d="M143.535 128.331L285.885 128.331V17.4415L143.535 17.4415V128.331Z" fill="#E0E0E0"/>
<path d="M298.775 198.61H274.226C271.617 198.61 269.502 200.944 269.502 203.823V216.362C269.502 219.241 271.617 221.575 274.226 221.575H298.775C301.383 221.575 303.498 219.241 303.498 216.362V203.823C303.498 200.944 301.383 198.61 298.775 198.61Z" fill="#FAFAFA"/>
<path d="M301.909 194.366H271.091C270.214 194.366 269.502 195.151 269.502 196.12V197.534C269.502 198.503 270.214 199.288 271.091 199.288H301.909C302.787 199.288 303.498 198.503 303.498 197.534V196.12C303.498 195.151 302.787 194.366 301.909 194.366Z" fill="#E6E6E6"/>
<path d="M270.002 247.088C270.002 247.088 270.45 263.24 287.501 263.24C304.552 263.24 304.999 247.088 304.999 247.088H270.002Z" fill="#F0F0F0"/>
<path d="M308.88 247.088C308.88 247.088 309.328 263.24 326.379 263.24C343.43 263.24 343.877 247.088 343.877 247.088H308.88Z" fill="#F0F0F0"/>
<path d="M335.431 188.213H301.716C298.127 188.213 295.218 191.423 295.218 195.384V214.414C295.218 218.374 298.127 221.584 301.716 221.584H335.431C339.019 221.584 341.928 218.374 341.928 214.414V195.384C341.928 191.423 339.019 188.213 335.431 188.213Z" fill="#F0F0F0"/>
<path d="M339.751 182.38H297.396C296.193 182.38 295.218 183.456 295.218 184.783V186.74C295.218 188.067 296.193 189.143 297.396 189.143H339.751C340.953 189.143 341.928 188.067 341.928 186.74V184.783C341.928 183.456 340.953 182.38 339.751 182.38Z" fill="#F5F5F5"/>
<path d="M257.157 317.241H261.583V237.165H257.157V317.241Z" fill="#E6E6E6"/>
<path d="M384.933 221.575H360.972V237.156H384.933V221.575Z" fill="#E6E6E6"/>
<path d="M241.836 237.166L360.964 237.166V221.584L241.836 221.584V237.166Z" fill="#F5F5F5"/>
<path d="M384.933 263.192H360.972V278.773H384.933V263.192Z" fill="#E6E6E6"/>
<path d="M241.836 278.773H360.964V263.192H241.836V278.773Z" fill="#F5F5F5"/>
<path d="M376.284 317.241H380.71V237.165H376.284V317.241Z" fill="#E6E6E6"/>
<path d="M356.547 317.241H360.972V237.165H356.547V317.241Z" fill="#F5F5F5"/>
<path d="M241.836 317.241H246.261V237.165H241.836V317.241Z" fill="#F5F5F5"/>
<path d="M219.5 361C313.518 361 389.735 356.089 389.735 350.031C389.735 343.973 313.518 339.062 219.5 339.062C125.482 339.062 49.2645 343.973 49.2645 350.031C49.2645 356.089 125.482 361 219.5 361Z" fill="#F5F5F5"/>
<path d="M228.64 300.866H116.634C114.832 300.838 113.108 300.059 111.805 298.686C110.502 297.313 109.718 295.447 109.61 293.463L99.5652 78.7873C99.5096 77.8324 99.6332 76.8751 99.9284 75.9754C100.224 75.0757 100.684 74.2531 101.281 73.5589C101.878 72.8648 102.598 72.3142 103.397 71.9417C104.195 71.5692 105.055 71.3827 105.922 71.394H217.928C219.729 71.4198 221.454 72.1964 222.757 73.5678C224.059 74.9392 224.844 76.8039 224.952 78.7873L234.979 293.463C235.035 294.417 234.912 295.373 234.618 296.272C234.323 297.17 233.865 297.993 233.27 298.687C232.675 299.382 231.957 299.934 231.161 300.309C230.364 300.683 229.506 300.873 228.64 300.866Z" fill="#1877F2"/>
<path opacity="0.8" d="M228.64 300.866H116.634C114.832 300.838 113.108 300.059 111.805 298.686C110.502 297.313 109.718 295.447 109.61 293.463L99.5652 78.7873C99.5096 77.8324 99.6332 76.8751 99.9284 75.9754C100.224 75.0757 100.684 74.2531 101.281 73.5589C101.878 72.8648 102.598 72.3142 103.397 71.9417C104.195 71.5692 105.055 71.3827 105.922 71.394H217.928C219.729 71.4198 221.454 72.1964 222.757 73.5678C224.059 74.9392 224.844 76.8039 224.952 78.7873L234.979 293.463C235.035 294.417 234.912 295.373 234.618 296.272C234.323 297.17 233.865 297.993 233.27 298.687C232.675 299.382 231.957 299.934 231.161 300.309C230.364 300.683 229.506 300.873 228.64 300.866Z" fill="white"/>
<path d="M206.874 64.3979H194.486V65.3669H206.874V64.3979Z" fill="#1877F2"/>
<path d="M190.192 64.3979H185.653V65.3669H190.192V64.3979Z" fill="#1877F2"/>
<path d="M233.46 287.242H126.344C124.619 287.223 122.965 286.485 121.714 285.174C120.463 283.863 119.708 282.078 119.601 280.178L110.014 74.853C109.96 73.9392 110.079 73.0231 110.361 72.1621C110.644 71.3011 111.085 70.5139 111.656 69.8497C112.227 69.1856 112.917 68.6589 113.681 68.3026C114.446 67.9464 115.268 67.7683 116.098 67.7796H223.214C224.939 67.8006 226.592 68.5419 227.842 69.8543C229.091 71.1668 229.844 72.9529 229.948 74.853L239.536 280.178C239.589 281.091 239.471 282.006 239.189 282.865C238.907 283.725 238.467 284.511 237.896 285.175C237.326 285.838 236.637 286.364 235.874 286.72C235.111 287.075 234.289 287.253 233.46 287.242Z" fill="#1877F2"/>
<path d="M233.46 282.523H126.344C125.716 282.499 125.118 282.222 124.663 281.743C124.208 281.264 123.928 280.618 123.877 279.926L114.281 74.611C114.259 74.3379 114.29 74.0628 114.372 73.8039C114.453 73.545 114.584 73.3082 114.755 73.1091C114.926 72.9104 115.134 72.7542 115.364 72.6506C115.594 72.5471 115.841 72.4985 116.089 72.5083H223.205C223.832 72.5344 224.428 72.8131 224.881 73.2917C225.334 73.7702 225.613 74.4154 225.664 75.1051L235.304 280.421C235.325 280.693 235.294 280.967 235.213 281.225C235.131 281.482 235.001 281.718 234.831 281.917C234.661 282.115 234.455 282.272 234.226 282.377C233.998 282.481 233.752 282.531 233.504 282.523H233.46ZM116.089 72.7506C115.871 72.7428 115.654 72.7853 115.451 72.8754C115.249 72.9654 115.065 73.1011 114.913 73.2738C114.766 73.4527 114.654 73.6627 114.583 73.8908C114.512 74.119 114.484 74.3607 114.5 74.6013L124.088 279.917C124.137 280.545 124.392 281.133 124.806 281.568C125.22 282.004 125.764 282.257 126.336 282.281H233.452C233.669 282.29 233.885 282.249 234.087 282.158C234.288 282.068 234.47 281.932 234.619 281.758C234.77 281.581 234.884 281.372 234.955 281.143C235.026 280.914 235.052 280.671 235.032 280.43L225.453 75.1148C225.406 74.4868 225.153 73.8995 224.74 73.4639C224.328 73.0282 223.785 72.7745 223.214 72.7506H116.089Z" fill="white"/>
<path opacity="0.3" d="M195.993 147.338C208.176 133.54 207.383 110.88 194.221 96.7251C181.059 82.5699 160.513 82.2799 148.33 96.0773C136.146 109.875 136.94 132.535 150.102 146.69C163.264 160.845 183.81 161.135 195.993 147.338Z" fill="white"/>
<path d="M198.428 121.713C198.674 126.474 197.806 131.226 195.908 135.511C193.854 140.107 190.665 143.969 186.708 146.652C182.752 149.334 178.189 150.729 173.545 150.675C168.733 150.627 164.014 149.206 159.848 146.548C155.681 143.891 152.209 140.088 149.769 135.511C147.495 131.325 146.187 126.587 145.959 121.713C145.742 117.975 146.227 114.227 147.383 110.706C148.539 107.184 150.341 103.963 152.677 101.246C155.013 98.5281 157.831 96.3717 160.957 94.9115C164.082 93.4513 167.447 92.7187 170.841 92.7597C177.905 92.8409 184.678 95.873 189.797 101.245C194.916 106.618 198 113.931 198.428 121.713Z" fill="white"/>
<path d="M195.882 135.511C193.828 140.107 190.639 143.969 186.682 146.652C182.726 149.335 178.163 150.729 173.519 150.675C168.707 150.627 163.988 149.206 159.822 146.548C155.655 143.891 152.183 140.088 149.743 135.511C156.415 130.425 164.34 127.72 172.448 127.759C180.774 127.794 188.912 130.486 195.882 135.511Z" fill="#1877F2"/>
<path d="M180.295 121.039C184.684 116.068 184.397 107.903 179.653 102.801C174.909 97.699 167.505 97.5929 163.116 102.564C158.727 107.535 159.014 115.7 163.758 120.802C168.502 125.904 175.906 126.01 180.295 121.039Z" fill="#1877F2"/>
<path d="M218.104 207.36H134.229C133.498 207.352 132.797 207.038 132.268 206.483C131.739 205.927 131.419 205.171 131.375 204.366L130.743 190.8C130.721 190.414 130.772 190.028 130.892 189.664C131.011 189.301 131.198 188.969 131.439 188.689C131.681 188.409 131.972 188.187 132.295 188.036C132.618 187.886 132.965 187.811 133.315 187.816H217.191C217.92 187.824 218.619 188.136 219.149 188.69C219.678 189.243 219.998 189.997 220.044 190.8L220.676 204.366C220.7 204.753 220.65 205.14 220.531 205.505C220.411 205.869 220.225 206.203 219.983 206.484C219.742 206.765 219.45 206.988 219.127 207.139C218.803 207.29 218.455 207.365 218.104 207.36Z" fill="white"/>
<path opacity="0.3" d="M192.423 180.326H157.39C156.657 180.32 155.953 180.006 155.421 179.448C154.89 178.89 154.57 178.13 154.528 177.322L154.396 174.415C154.373 174.028 154.423 173.641 154.542 173.276C154.662 172.912 154.848 172.578 155.089 172.297C155.331 172.016 155.623 171.793 155.946 171.642C156.27 171.491 156.618 171.416 156.969 171.421H191.992C192.723 171.429 193.423 171.743 193.953 172.298C194.482 172.854 194.801 173.61 194.846 174.415L194.986 177.322C195.008 177.708 194.958 178.095 194.838 178.458C194.719 178.822 194.534 179.155 194.294 179.436C194.053 179.718 193.763 179.942 193.442 180.095C193.12 180.248 192.773 180.326 192.423 180.326Z" fill="black"/>
<path opacity="0.3" d="M205.452 272.581H152.974C151.731 272.564 150.541 272.03 149.64 271.085C148.74 270.139 148.196 268.853 148.119 267.485L147.811 260.799C147.78 260.142 147.871 259.484 148.078 258.867C148.284 258.25 148.603 257.686 149.014 257.209C149.424 256.732 149.919 256.352 150.467 256.093C151.015 255.834 151.605 255.701 152.201 255.702H204.662C205.905 255.719 207.096 256.253 207.996 257.199C208.896 258.144 209.44 259.43 209.517 260.799L209.825 267.485C209.856 268.14 209.765 268.796 209.56 269.412C209.354 270.027 209.037 270.591 208.628 271.067C208.22 271.544 207.727 271.924 207.181 272.184C206.635 272.445 206.047 272.58 205.452 272.581Z" fill="black"/>
<path d="M219.641 240.169H135.757C135.027 240.159 134.327 239.845 133.798 239.289C133.269 238.734 132.949 237.979 132.903 237.175L132.271 223.61C132.249 223.223 132.3 222.836 132.42 222.472C132.539 222.109 132.726 221.776 132.967 221.495C133.208 221.214 133.499 220.991 133.822 220.84C134.145 220.689 134.493 220.612 134.843 220.616H218.719C219.449 220.624 220.15 220.937 220.679 221.493C221.209 222.049 221.528 222.805 221.572 223.61L222.213 237.175C222.234 237.561 222.182 237.948 222.062 238.311C221.942 238.674 221.755 239.006 221.514 239.287C221.273 239.567 220.982 239.791 220.66 239.942C220.338 240.094 219.991 240.171 219.641 240.169Z" fill="white"/>
<path d="M144.87 197.583C144.894 198.011 144.838 198.44 144.705 198.844C144.572 199.247 144.366 199.615 144.098 199.926C143.83 200.237 143.507 200.484 143.149 200.651C142.791 200.818 142.405 200.902 142.017 200.897C141.209 200.886 140.435 200.539 139.85 199.924C139.265 199.309 138.913 198.473 138.865 197.583C138.839 197.155 138.894 196.727 139.026 196.323C139.158 195.92 139.364 195.551 139.631 195.24C139.898 194.929 140.221 194.682 140.578 194.515C140.936 194.348 141.321 194.264 141.709 194.269C142.518 194.28 143.293 194.627 143.879 195.242C144.465 195.856 144.819 196.693 144.87 197.583Z" fill="#263238"/>
<path d="M154.116 197.583C154.141 198.011 154.086 198.44 153.954 198.843C153.822 199.246 153.616 199.615 153.349 199.926C153.082 200.237 152.76 200.484 152.402 200.651C152.044 200.818 151.659 200.902 151.271 200.897C150.463 200.889 149.688 200.542 149.102 199.927C148.517 199.311 148.166 198.474 148.119 197.583C148.093 197.155 148.148 196.727 148.28 196.323C148.412 195.92 148.618 195.551 148.885 195.24C149.152 194.929 149.475 194.682 149.832 194.515C150.19 194.348 150.575 194.264 150.964 194.269C151.772 194.278 152.547 194.624 153.132 195.24C153.717 195.855 154.069 196.693 154.116 197.583Z" fill="#263238"/>
<path d="M163.308 197.583C163.333 198.011 163.278 198.44 163.147 198.843C163.015 199.246 162.809 199.615 162.542 199.926C162.275 200.237 161.952 200.484 161.594 200.651C161.237 200.818 160.852 200.902 160.463 200.897C159.655 200.887 158.88 200.539 158.294 199.925C157.707 199.31 157.353 198.474 157.302 197.583C157.278 197.155 157.334 196.726 157.467 196.323C157.6 195.919 157.807 195.551 158.075 195.24C158.343 194.929 158.666 194.682 159.024 194.515C159.382 194.348 159.767 194.264 160.156 194.269C160.964 194.28 161.738 194.628 162.322 195.242C162.907 195.857 163.259 196.693 163.308 197.583Z" fill="#263238"/>
<path d="M172.571 197.583C172.595 198.01 172.539 198.439 172.407 198.841C172.274 199.244 172.068 199.612 171.801 199.923C171.535 200.234 171.213 200.481 170.855 200.648C170.498 200.816 170.114 200.9 169.726 200.897C168.917 200.886 168.142 200.539 167.556 199.925C166.97 199.31 166.616 198.474 166.565 197.583C166.541 197.156 166.597 196.727 166.729 196.325C166.862 195.922 167.068 195.554 167.334 195.243C167.601 194.932 167.923 194.686 168.28 194.518C168.637 194.35 169.022 194.266 169.41 194.269C170.218 194.28 170.993 194.627 171.58 195.242C172.166 195.856 172.52 196.692 172.571 197.583Z" fill="#263238"/>
<path d="M146.424 230.373C146.45 230.801 146.395 231.23 146.263 231.633C146.131 232.036 145.925 232.405 145.658 232.716C145.391 233.027 145.068 233.274 144.71 233.441C144.353 233.608 143.968 233.692 143.579 233.687C142.771 233.677 141.996 233.329 141.41 232.715C140.823 232.1 140.469 231.264 140.419 230.373C140.394 229.945 140.45 229.516 140.583 229.113C140.716 228.71 140.923 228.341 141.191 228.03C141.459 227.719 141.782 227.472 142.14 227.305C142.498 227.138 142.883 227.054 143.272 227.059C144.08 227.07 144.854 227.418 145.438 228.032C146.023 228.647 146.375 229.483 146.424 230.373Z" fill="#263238"/>
<path d="M155.652 230.373C155.676 230.801 155.62 231.229 155.488 231.631C155.355 232.034 155.149 232.402 154.882 232.713C154.616 233.024 154.294 233.271 153.937 233.438C153.579 233.606 153.195 233.691 152.807 233.687C151.998 233.677 151.223 233.329 150.637 232.715C150.051 232.1 149.697 231.264 149.646 230.373C149.621 229.945 149.676 229.517 149.808 229.113C149.939 228.71 150.145 228.341 150.413 228.03C150.68 227.719 151.002 227.472 151.36 227.305C151.717 227.138 152.103 227.054 152.491 227.059C153.299 227.07 154.074 227.417 154.661 228.032C155.247 228.646 155.601 229.483 155.652 230.373Z" fill="#263238"/>
<path d="M164.88 230.373C164.904 230.801 164.848 231.23 164.715 231.634C164.582 232.037 164.375 232.405 164.108 232.716C163.84 233.027 163.517 233.274 163.159 233.441C162.801 233.608 162.415 233.692 162.026 233.687C161.218 233.679 160.443 233.332 159.858 232.717C159.273 232.101 158.921 231.264 158.874 230.373C158.849 229.945 158.904 229.517 159.036 229.113C159.168 228.71 159.374 228.341 159.641 228.03C159.908 227.719 160.23 227.472 160.588 227.305C160.946 227.138 161.331 227.054 161.719 227.059C162.528 227.07 163.303 227.417 163.889 228.032C164.475 228.646 164.829 229.483 164.88 230.373Z" fill="#263238"/>
<path d="M174.099 230.373C174.124 230.801 174.069 231.23 173.937 231.633C173.805 232.036 173.599 232.405 173.332 232.716C173.065 233.027 172.743 233.274 172.385 233.441C172.027 233.608 171.642 233.692 171.254 233.687C170.445 233.677 169.67 233.329 169.084 232.715C168.498 232.1 168.144 231.264 168.093 230.373C168.069 229.945 168.125 229.516 168.258 229.113C168.391 228.71 168.598 228.341 168.865 228.03C169.133 227.719 169.456 227.472 169.814 227.305C170.172 227.138 170.558 227.054 170.947 227.059C171.755 227.068 172.53 227.415 173.115 228.03C173.7 228.645 174.052 229.483 174.099 230.373Z" fill="#263238"/>
<path d="M183.327 230.373C183.352 230.801 183.297 231.23 183.165 231.633C183.033 232.036 182.827 232.405 182.56 232.716C182.293 233.027 181.971 233.274 181.613 233.441C181.255 233.608 180.87 233.692 180.482 233.687C179.673 233.677 178.898 233.329 178.312 232.715C177.726 232.1 177.372 231.264 177.321 230.373C177.297 229.946 177.353 229.517 177.485 229.115C177.617 228.712 177.823 228.344 178.09 228.033C178.357 227.723 178.679 227.476 179.036 227.308C179.393 227.14 179.778 227.056 180.166 227.059C180.974 227.07 181.749 227.417 182.335 228.032C182.922 228.646 183.276 229.483 183.327 230.373Z" fill="#263238"/>
<path d="M192.554 230.373C192.578 230.801 192.522 231.23 192.389 231.634C192.256 232.037 192.05 232.405 191.782 232.716C191.514 233.027 191.191 233.274 190.833 233.441C190.475 233.608 190.089 233.692 189.701 233.687C188.893 233.676 188.119 233.329 187.534 232.714C186.95 232.099 186.597 231.263 186.549 230.373C186.523 229.945 186.578 229.517 186.71 229.113C186.842 228.71 187.048 228.341 187.315 228.03C187.582 227.719 187.905 227.472 188.262 227.305C188.62 227.138 189.005 227.054 189.393 227.059C190.202 227.07 190.977 227.417 191.563 228.032C192.149 228.646 192.503 229.483 192.554 230.373Z" fill="#263238"/>
<path d="M292.374 117.846C292.594 118.215 292.708 118.408 292.848 118.67L293.243 119.387C293.498 119.872 293.726 120.356 293.946 120.831C294.385 121.8 294.824 122.769 295.175 123.738C295.911 125.662 296.544 127.633 297.071 129.639C298.134 133.602 298.834 137.672 299.161 141.79L299.222 142.555C299.23 142.71 299.23 142.865 299.222 143.02V143.534C299.237 144.208 299.202 144.882 299.117 145.549C298.949 146.787 298.654 147.999 298.239 149.164C297.468 151.243 296.446 153.199 295.201 154.977C292.879 158.259 290.124 161.136 287.027 163.514L284.604 160.384C286.809 157.636 288.762 154.653 290.434 151.479C291.186 150.04 291.776 148.504 292.19 146.906C292.357 146.229 292.455 145.533 292.479 144.832C292.506 144.533 292.506 144.231 292.479 143.931V143.728C292.488 143.637 292.488 143.547 292.479 143.456L292.374 142.778C291.809 139.167 291.011 135.605 289.986 132.119C289.477 130.385 288.853 128.709 288.23 127.071C287.923 126.247 287.571 125.443 287.22 124.668L286.676 123.525L286.404 122.992L286.175 122.565L292.374 117.846Z" fill="#803E3C"/>
<path d="M284.209 163.533L287.387 170.946L289.907 164.677C289.907 164.677 287.668 159.251 284.639 159.754L284.209 163.533Z" fill="#7F3E3B"/>
<path d="M289.661 171.314L292.19 166.741L289.907 164.677L287.387 170.946L289.661 171.314Z" fill="#7F3E3B"/>
<path d="M275.367 342.26C276.025 342.242 276.678 342.145 277.317 341.969C277.349 341.959 277.378 341.939 277.401 341.911C277.424 341.884 277.44 341.851 277.448 341.814C277.454 341.777 277.449 341.739 277.435 341.705C277.421 341.67 277.398 341.641 277.369 341.621C277.115 341.437 274.884 339.847 274.024 340.274C273.929 340.323 273.847 340.399 273.787 340.494C273.727 340.59 273.69 340.701 273.682 340.816C273.655 340.992 273.667 341.172 273.718 341.34C273.768 341.509 273.855 341.662 273.971 341.785C274.369 342.125 274.865 342.293 275.367 342.26ZM276.816 341.688C275.543 341.979 274.577 341.931 274.182 341.553C274.101 341.464 274.042 341.355 274.01 341.235C273.978 341.115 273.974 340.987 273.998 340.865C273.998 340.7 274.085 340.652 274.147 340.623C274.621 340.39 275.912 341.078 276.816 341.688Z" fill="#1877F2"/>
<path d="M277.272 341.97H277.36C277.387 341.951 277.408 341.925 277.424 341.894C277.439 341.864 277.447 341.83 277.448 341.795C277.448 341.698 277.448 339.363 276.64 338.578C276.541 338.48 276.424 338.406 276.297 338.363C276.169 338.319 276.035 338.307 275.903 338.326C275.764 338.327 275.63 338.381 275.523 338.478C275.416 338.575 275.343 338.709 275.314 338.859C275.148 339.78 276.482 341.524 277.185 341.97H277.272ZM276.017 338.685C276.088 338.683 276.159 338.696 276.225 338.724C276.291 338.752 276.352 338.795 276.403 338.849C276.866 339.603 277.106 340.497 277.088 341.408C276.386 340.787 275.552 339.47 275.657 338.917C275.657 338.83 275.718 338.714 275.938 338.685H276.017Z" fill="#1877F2"/>
<path d="M267.079 338.307C267.099 338.278 267.113 338.244 267.117 338.208C267.122 338.172 267.118 338.136 267.105 338.102C267.093 338.068 267.072 338.039 267.046 338.017C267.02 337.995 266.989 337.982 266.956 337.977C266.596 337.977 263.444 337.813 262.724 338.665V338.724C262.664 338.807 262.626 338.907 262.612 339.012C262.598 339.118 262.609 339.225 262.645 339.324C262.692 339.491 262.775 339.642 262.886 339.765C262.998 339.888 263.135 339.98 263.286 340.032C264.304 340.38 266.104 339.111 267.088 338.326L267.079 338.307ZM262.987 338.917C263.382 338.452 265.121 338.326 266.42 338.346C265.059 339.373 263.927 339.857 263.356 339.663C263.257 339.63 263.166 339.57 263.093 339.489C263.019 339.408 262.965 339.308 262.935 339.198C262.917 339.161 262.908 339.119 262.908 339.077C262.908 339.035 262.917 338.993 262.935 338.956L262.987 338.917Z" fill="#1877F2"/>
<path d="M267.079 338.307C267.092 338.277 267.099 338.244 267.099 338.21C267.099 338.177 267.092 338.143 267.079 338.113C267.035 338.036 266.052 336.175 264.893 335.788C264.726 335.734 264.552 335.718 264.379 335.741C264.207 335.765 264.041 335.827 263.892 335.923C263.47 336.195 263.444 336.514 263.497 336.718C263.725 337.619 265.964 338.414 266.93 338.404C266.96 338.403 266.99 338.394 267.016 338.377C267.042 338.36 267.064 338.336 267.079 338.307ZM263.927 336.369C263.976 336.315 264.032 336.27 264.094 336.233C264.202 336.157 264.324 336.108 264.452 336.09C264.579 336.071 264.709 336.084 264.831 336.127C265.595 336.35 266.306 337.435 266.631 337.968C265.586 337.842 263.997 337.135 263.865 336.592C263.854 336.551 263.854 336.507 263.865 336.466C263.876 336.424 263.897 336.387 263.927 336.359V336.369Z" fill="#1877F2"/>
<path d="M276.746 89.4653C275.868 94.3102 273.971 104.785 277.018 108.002C277.018 108.002 275.824 112.847 267.72 112.847C258.8 112.847 263.462 108.002 263.462 108.002C268.326 106.723 268.203 102.731 267.351 98.9903L276.746 89.4653Z" fill="#7F3E3B"/>
<path d="M261.89 78.1088C261.939 78.1176 261.989 78.1176 262.039 78.1088C262.081 78.0861 262.118 78.0545 262.148 78.0159C262.179 77.9772 262.202 77.9323 262.217 77.8836C262.232 77.8349 262.237 77.7835 262.234 77.7323C262.231 77.6812 262.218 77.6313 262.197 77.5855C261.961 77.0328 261.608 76.5507 261.168 76.1797C260.728 75.8088 260.214 75.5598 259.668 75.4538C259.577 75.4453 259.486 75.4757 259.414 75.5388C259.342 75.6018 259.295 75.6927 259.282 75.7929C259.272 75.8943 259.299 75.9959 259.356 76.0757C259.414 76.1555 259.497 76.2071 259.589 76.2193C260.02 76.3105 260.424 76.5136 260.769 76.8119C261.114 77.1102 261.39 77.495 261.574 77.9343C261.608 77.9917 261.655 78.038 261.71 78.0686C261.766 78.0993 261.828 78.1131 261.89 78.1088Z" fill="#263238"/>
<path d="M259.23 82.3628C258.538 83.7772 257.676 85.0812 256.666 86.2387C256.939 86.5148 257.264 86.722 257.617 86.8458C257.97 86.9696 258.344 87.0071 258.712 86.9557L259.23 82.3628Z" fill="#630F0F"/>
<path d="M259.888 81.2678C259.818 81.917 259.44 82.4015 259.063 82.3531C258.685 82.3046 258.422 81.7329 258.492 81.0837C258.562 80.4345 258.94 79.95 259.37 79.9985C259.8 80.0469 259.95 80.6186 259.888 81.2678Z" fill="#263238"/>
<path d="M259.484 80.0566L258.132 79.4558C258.132 79.4558 258.703 80.7348 259.484 80.0566Z" fill="#263238"/>
<path d="M274.832 336.466L267.667 338.307L263.312 320.129L270.477 318.288L274.832 336.466Z" fill="#7F3E3B"/>
<path d="M285.824 341.776H278.475L279.046 322.987H286.404L285.824 341.776Z" fill="#7F3E3B"/>
<path d="M277.887 340.836H286.149C286.292 340.834 286.431 340.891 286.539 340.994C286.648 341.098 286.718 341.241 286.737 341.398L287.677 348.607C287.695 348.789 287.679 348.974 287.628 349.148C287.577 349.323 287.494 349.484 287.382 349.62C287.271 349.757 287.135 349.866 286.983 349.94C286.831 350.014 286.666 350.052 286.5 350.051C283.62 350.002 282.233 349.808 278.598 349.808C276.359 349.808 273.093 350.07 270.011 350.07C266.93 350.07 266.754 346.698 268.045 346.398C273.804 345.022 274.717 343.142 276.658 341.34C277.001 341.016 277.436 340.838 277.887 340.836Z" fill="#263238"/>
<path d="M267.035 337.096L274.542 333.288C274.67 333.221 274.815 333.207 274.951 333.25C275.087 333.293 275.203 333.389 275.28 333.52L278.871 339.644C278.954 339.802 279.007 339.977 279.026 340.159C279.045 340.34 279.029 340.524 278.979 340.698C278.93 340.873 278.847 341.034 278.738 341.171C278.629 341.308 278.494 341.418 278.344 341.495C275.71 342.774 274.375 343.249 271.074 344.925C269.046 345.952 264.928 348.316 262.136 349.77C259.344 351.223 257.904 348.21 258.958 347.338C263.672 343.462 265.025 340.681 266.104 338.152C266.287 337.686 266.618 337.31 267.035 337.096Z" fill="#263238"/>
<path opacity="0.2" d="M263.312 320.129L265.648 329.877L272.725 327.658L270.486 318.288L263.312 320.129Z" fill="black"/>
<path opacity="0.2" d="M286.404 322.987H279.046L278.756 332.677H286.114L286.404 322.987Z" fill="black"/>
<path d="M289.74 109.843C292.795 110.589 296.062 122.711 296.062 122.711L287.422 132.856C287.422 132.856 280.249 121.461 281.715 117.275C283.199 112.905 286.096 108.971 289.74 109.843Z" fill="#263238"/>
<path opacity="0.4" d="M284.858 117.565C283.313 116.005 282.268 116.47 281.557 117.711C280.855 121.315 285.016 128.864 286.693 131.722C287.466 128.311 288.353 121.122 284.858 117.565Z" fill="black"/>
<path d="M251.029 110.085C251.029 110.085 247.517 111.441 254.541 159.066H284.393C283.893 145.656 283.875 137.381 289.661 109.843C285.478 108.89 281.238 108.275 276.974 108.002C272.461 107.643 267.931 107.643 263.418 108.002C257.632 108.593 251.029 110.085 251.029 110.085Z" fill="#263238"/>
<path opacity="0.4" d="M250.757 128.36C250.95 130.675 251.205 133.282 251.538 136.228C253.988 133.796 255.99 126.877 255.252 122.846C253.502 124.414 251.985 126.274 250.757 128.36Z" fill="black"/>
<path d="M253.953 121.121C252.342 125.596 250.528 129.978 248.518 134.251C246.531 138.678 244.18 142.895 241.494 146.848L240.932 147.613L240.651 147.991C240.555 148.117 240.476 148.233 240.327 148.408C239.798 149.044 239.21 149.616 238.571 150.113C237.441 150.976 236.205 151.655 234.901 152.129C232.625 152.931 230.263 153.393 227.877 153.504C223.407 153.701 218.934 153.261 214.566 152.196L215.049 148.127C217.068 148.127 219.184 148.127 221.195 147.943C223.214 147.833 225.226 147.587 227.218 147.206C229.068 146.888 230.878 146.328 232.609 145.54C233.308 145.21 233.961 144.773 234.549 144.241C234.774 144.034 234.977 143.8 235.155 143.543C235.155 143.543 235.26 143.388 235.331 143.282L235.533 142.962L235.945 142.323C238.148 138.567 240.111 134.646 241.819 130.588C243.575 126.47 245.331 122.197 246.938 117.992L253.953 121.121Z" fill="#803E3C"/>
<path d="M251.029 110.085C247.368 111.054 242.872 122.139 242.872 122.139L250.458 134.445C250.458 134.445 260.564 120.404 259.361 116.122C258.132 111.655 255.498 108.883 251.029 110.085Z" fill="#263238"/>
<path d="M217.156 148.747L210.826 145.52L210.193 152.468C210.193 152.468 215.461 154.183 218.095 152.468L217.156 148.747Z" fill="#7F3E3B"/>
<path d="M207.041 144.823L206.436 150.113L210.193 152.468L210.826 145.52L207.041 144.823Z" fill="#7F3E3B"/>
<path d="M279.924 81.7425C278.581 89.659 278.168 93.0504 274.059 96.6453C267.913 102.052 259.352 98.5057 258.527 90.3082C257.772 82.9246 260.09 71.2195 267.527 68.9908C269.165 68.4921 270.891 68.4647 272.542 68.9115C274.192 69.3582 275.712 70.2641 276.955 71.5428C278.198 72.8214 279.123 74.4302 279.643 76.2158C280.163 78.0013 280.26 79.904 279.924 81.7425Z" fill="#7F3E3B"/>
<path d="M264.164 83.4092C263.751 87.4498 263.593 97.9438 271.636 98.2732C281.478 98.6705 284.428 89.3878 283.55 85.6766C288.678 81.074 289.415 73.1575 283.655 67.1014C277.896 61.0453 265.217 64.427 261.705 70.3281C257.254 77.6438 264.164 83.4092 264.164 83.4092Z" fill="#263238"/>
<path d="M274.024 69.4561C273.55 65.1926 273.918 62.2566 277.536 62.2566C281.153 62.2566 286.087 63.7004 287.896 67.7797C289.705 71.8591 289.854 78.2446 284.806 77.5954C279.757 76.9462 274.594 74.5528 274.024 69.4561Z" fill="#1877F2"/>
<path d="M279.626 68.4289C278.748 63.3515 282.865 49.0494 292.866 48.0805C297.502 47.6444 299.644 53.1482 297.256 54.059C301.646 54.0009 304.455 60.4058 300.364 61.3651C303.595 63.6518 302.796 68.3417 298.186 70.6478C294.753 72.392 280.811 75.4636 279.626 68.4289Z" fill="#263238"/>
<path d="M290.311 73.8841C287.089 73.8841 283.726 73.3608 281.637 71.8202C281.052 71.4315 280.56 70.8947 280.202 70.2544C279.843 69.6141 279.627 68.8886 279.573 68.1381C279.571 68.0744 279.59 68.0119 279.627 67.9634C279.665 67.9148 279.718 67.8837 279.775 67.8765C279.804 67.8724 279.834 67.8751 279.862 67.8843C279.89 67.8936 279.916 67.9092 279.938 67.9301C279.961 67.9511 279.979 67.977 279.991 68.0061C280.004 68.0352 280.011 68.067 280.012 68.0993C280.065 68.7766 280.262 69.4305 280.587 70.008C280.912 70.5855 281.356 71.0703 281.882 71.4229C285.86 74.3298 295.052 73.3608 297.915 72.3919C300.391 71.5004 302.068 69.7659 302.401 67.7699C302.505 67.0374 302.423 66.2874 302.164 65.6032C301.906 64.919 301.48 64.3274 300.935 63.894C300.914 63.8722 300.897 63.846 300.886 63.8168C300.874 63.7876 300.868 63.7562 300.868 63.7244C300.868 63.6926 300.874 63.6612 300.886 63.632C300.897 63.6029 300.914 63.5766 300.935 63.5548C300.976 63.5104 301.031 63.4856 301.089 63.4856C301.146 63.4856 301.201 63.5104 301.242 63.5548C301.855 64.0483 302.332 64.7202 302.618 65.4953C302.905 66.2705 302.991 67.1184 302.867 67.9443C302.507 70.1245 300.724 71.9849 298.09 72.9345C295.549 73.6415 292.931 73.961 290.311 73.8841Z" fill="#263238"/>
<path d="M261.925 82.3627C261.108 83.6284 260.77 85.1966 260.986 86.7328C261.275 88.7676 263.067 88.9033 264.366 87.6048C265.665 86.3064 266.798 83.9615 265.841 82.2755C265.628 81.9113 265.335 81.6132 264.988 81.4097C264.642 81.2061 264.254 81.1038 263.861 81.1126C263.469 81.1213 263.085 81.2408 262.746 81.4596C262.407 81.6784 262.124 81.9893 261.925 82.3627Z" fill="#7F3E3B"/>
<path d="M262.426 159.066C262.426 159.066 266.693 214.773 271.126 246.167C274.7 271.525 277.527 330.797 277.527 330.797H287.554C287.554 330.797 291.119 273.298 289.31 248.221C284.718 184.754 294.964 179.58 284.419 159.076L262.426 159.066Z" fill="#1877F2"/>
<path opacity="0.4" d="M275.051 180.122C271.078 184.725 267.871 190.065 265.578 195.897C266.746 208.416 268.133 222.311 269.608 234.482C275.66 217.189 277.536 198.457 275.051 180.122Z" fill="black"/>
<path d="M255.41 158.718C255.41 158.718 246.147 219.559 244.69 246.981C248.325 272.339 263.198 325.943 263.198 325.943L272.32 322.29C272.32 322.29 267.272 263.841 261.784 247.844C274.138 201.943 283.216 190.335 280.574 159.066C274.243 159.066 255.41 158.718 255.41 158.718Z" fill="#1877F2"/>
<path d="M261.978 328.617L274.305 324.925L273.602 319.499L260.406 323.443L261.978 328.617Z" fill="#263238"/>
<path d="M276.149 331.02H288.924L289.591 326.078L276.078 325.574L276.149 331.02Z" fill="#263238"/>
<path d="M284.858 157.129L286.202 160.084C286.307 160.316 286.061 160.549 285.719 160.549H254.392C254.128 160.549 253.9 160.404 253.883 160.21L253.61 157.303C253.61 157.099 253.83 156.925 254.12 156.925H284.367C284.458 156.911 284.55 156.923 284.636 156.958C284.722 156.994 284.798 157.052 284.858 157.129Z" fill="#1877F2"/>
<path opacity="0.5" d="M284.858 157.129L286.202 160.084C286.307 160.316 286.061 160.549 285.719 160.549H254.392C254.128 160.549 253.9 160.404 253.883 160.21L253.61 157.303C253.61 157.099 253.83 156.925 254.12 156.925H284.367C284.458 156.911 284.55 156.923 284.636 156.958C284.722 156.994 284.798 157.052 284.858 157.129Z" fill="black"/>
<path d="M280.793 160.849H281.601C281.768 160.849 281.891 160.752 281.882 160.646L281.496 156.77C281.496 156.654 281.346 156.566 281.188 156.566H280.372C280.214 156.566 280.091 156.654 280.1 156.77L280.477 160.646C280.495 160.772 280.635 160.849 280.793 160.849Z" fill="#1877F2"/>
<path d="M269.924 132.633C269.827 132.631 269.733 132.596 269.656 132.531C269.578 132.467 269.522 132.377 269.494 132.274C266.631 120.589 260.714 110.957 257.843 109.504C257.62 109.352 257.352 109.304 257.096 109.368C257.043 109.399 256.985 109.417 256.925 109.422C256.866 109.427 256.806 109.419 256.749 109.397C256.692 109.376 256.64 109.342 256.596 109.297C256.552 109.253 256.516 109.199 256.491 109.138C256.467 109.078 256.454 109.013 256.453 108.947C256.452 108.881 256.463 108.815 256.486 108.754C256.509 108.693 256.543 108.637 256.586 108.591C256.629 108.545 256.68 108.51 256.736 108.486C256.976 108.389 257.233 108.351 257.487 108.374C257.742 108.397 257.989 108.482 258.211 108.622C261.249 110.211 267.255 119.707 270.258 131.654C272.409 131.654 275.727 131.334 276.535 131.257C277.536 129.939 284.894 119.784 282.146 108.67C282.13 108.609 282.125 108.545 282.132 108.482C282.139 108.419 282.157 108.358 282.186 108.303C282.215 108.248 282.253 108.2 282.299 108.161C282.345 108.123 282.397 108.095 282.453 108.079C282.565 108.046 282.684 108.064 282.784 108.127C282.884 108.191 282.958 108.295 282.989 108.418C286.053 120.782 277.167 131.935 277.071 132.042C277.037 132.089 276.994 132.128 276.946 132.156C276.897 132.184 276.844 132.202 276.79 132.207C276.746 132.207 272.365 132.633 269.924 132.633Z" fill="#1877F2"/>
<path d="M284.472 139.474C279.687 129.581 277.729 128.883 276.878 125.705C277.523 123.927 278.444 122.288 279.599 120.86C279.02 120.676 277.773 120.404 276.965 120.24C277.053 119.804 277.15 119.377 277.237 118.961C276.359 118.852 275.469 118.898 274.603 119.096V118.127C273.488 117.86 272.343 117.778 271.206 117.885C271.305 118.344 271.402 118.809 271.495 119.28C270.617 119.464 269.283 119.765 268.642 119.968C269.887 121.525 270.802 123.369 271.32 125.366C268.738 130.259 258.712 161.712 275.025 164.124C291.338 166.537 289.249 149.377 284.472 139.474Z" fill="#1877F2"/>
<path opacity="0.4" d="M284.472 139.474C279.687 129.581 277.729 128.883 276.878 125.705C277.523 123.927 278.444 122.288 279.599 120.86C279.02 120.676 277.773 120.404 276.965 120.24C277.053 119.804 277.15 119.377 277.237 118.961C276.359 118.852 275.469 118.898 274.603 119.096V118.127C273.488 117.86 272.343 117.778 271.206 117.885C271.305 118.344 271.402 118.809 271.495 119.28C270.617 119.464 269.283 119.765 268.642 119.968C269.887 121.525 270.802 123.369 271.32 125.366C268.738 130.259 258.712 161.712 275.025 164.124C291.338 166.537 289.249 149.377 284.472 139.474Z" fill="white"/>
<path d="M270.652 124.426C270.551 124.925 270.507 125.436 270.521 125.947C270.521 126.306 271.399 126.548 272.373 126.654C273.348 126.761 277.439 126.935 277.308 126.432C277.176 125.928 277.51 125.24 277.527 124.813C277.545 124.387 275.903 124.368 274.524 124.426C273.146 124.484 270.925 123.883 270.652 124.426Z" fill="#1877F2"/>
<path d="M261.161 160.849H261.969C262.127 160.849 262.25 160.752 262.241 160.646L261.864 156.77C261.864 156.654 261.714 156.566 261.548 156.566H260.766C260.608 156.566 260.485 156.654 260.494 156.77L260.872 160.646C260.854 160.772 260.994 160.849 261.161 160.849Z" fill="#1877F2"/>
</svg>
